<?xml version='1.0' encoding='iso-8859-1'?>
<!-- Uploaded to: SVG Repo, www.svgrepo.com, Generator: SVG Repo Mixer Tools -->
<svg fill="#000000" height="800px" width="800px" version="1.1" xmlns="http://www.w3.org/2000/svg" viewBox="0 0 470 470" xmlns:xlink="http://www.w3.org/1999/xlink" enable-background="new 0 0 470 470">
  <g>
    <path d="m470,244.429c0-4.142-3.357-7.5-7.5-7.5h-29.877v-26.333c0-4.142-3.357-7.5-7.5-7.5s-7.5,3.358-7.5,7.5v26.333h-22.376v-108.84h22.5c4.143,0 7.5-3.358 7.5-7.5s-3.357-7.5-7.5-7.5h-22.5v-72.108c0-4.142-3.357-7.5-7.5-7.5h-305.494c-4.143,0-7.5,3.358-7.5,7.5v72.107h-22.5c-4.143,0-7.5,3.358-7.5,7.5s3.357,7.5 7.5,7.5h22.5v108.84h-22.376v-26.333c0-4.142-3.357-7.5-7.5-7.5s-7.5,3.358-7.5,7.5v26.333h-29.877c-4.143,0-7.5,3.358-7.5,7.5v50.323c0,9.051 2.702,17.479 7.33,24.536v109.731c0,4.142 3.357,7.5 7.5,7.5h60.093c4.143,0 7.5-3.358 7.5-7.5v-73.974c0-4.142-3.357-7.5-7.5-7.5s-7.5,3.358-7.5,7.5v66.474h-45.093v-87.99c6.631,3.87 14.331,6.1 22.547,6.1 21.859,0 40.106-15.712 44.068-36.434 10.178,2.915 17.651,12.298 17.651,23.4v48.835c0,4.142 3.357,7.5 7.5,7.5h241.807c4.143,0 7.5-3.358 7.5-7.5v-48.835c0-11.102 7.473-20.485 17.651-23.4 3.962,20.721 22.21,36.434 44.068,36.434 8.216,0 15.916-2.229 22.547-6.1v87.99h-45.093v-66.474c0-4.142-3.357-7.5-7.5-7.5s-7.5,3.358-7.5,7.5v73.974c0,4.142 3.357,7.5 7.5,7.5h60.093c4.143,0 7.5-3.358 7.5-7.5v-109.73c4.628-7.057 7.33-15.485 7.33-24.536v-50.323zm-425.122,80.199c-16.475,0-29.877-13.402-29.877-29.877v-42.823h59.753v42.823c0,16.475-13.402,29.877-29.876,29.877zm190.123-147.829c26.043,0 49.296,14.613 60.646,37.655-6.22,5.9-10.609,13.705-12.224,22.474h-96.844c-1.614-8.765-5.999-16.567-12.215-22.466 11.364-23.003 34.739-37.663 60.637-37.663zm62.728,67.63c0-14.52 11.813-26.333 26.333-26.333s26.333,11.813 26.333,26.333c0,14.521-11.813,26.333-26.333,26.333s-26.333-11.813-26.333-26.333zm-125.456,0c0,14.521-11.813,26.333-26.333,26.333s-26.333-11.813-26.333-26.333c0-14.52 11.813-26.333 26.333-26.333s26.333,11.813 26.333,26.333zm14.306,7.5h96.844c2.168,11.772 9.328,21.817 19.208,27.832v48.365h-135.26v-48.365c9.88-6.016 17.04-16.061 19.208-27.832zm-19.208,91.197h135.26v24.804h-135.26v-24.804zm181.033-16.532v41.335h-30.773v-82.67c2.096,0.329 4.243,0.503 6.431,0.503 22.791,0 41.333-18.542 41.333-41.333 0-22.791-18.542-41.333-41.333-41.333-5.584,0-10.91,1.119-15.774,3.135-12.996-25.036-37.643-41.573-65.786-44.085v-61.557c0-4.142-3.357-7.5-7.5-7.5s-7.5,3.358-7.5,7.5v12.5h-115.248c-4.143,0-7.5,3.358-7.5,7.5s3.357,7.5 7.5,7.5h115.247v34.062c-28.013,2.529-52.776,19.096-65.785,44.081-4.864-2.016-10.191-3.136-15.776-3.136-22.791,0-41.333,18.542-41.333,41.333 0,22.792 18.542,41.333 41.333,41.333 2.187,0 4.334-0.174 6.431-0.503v82.67h-30.773v-41.335c0-19.129-13.725-35.105-31.844-38.617v-239.496h290.494v239.496c-18.118,3.512-31.844,19.488-31.844,38.617zm76.72-1.966c-16.474,0-29.876-13.402-29.876-29.876v-42.823h59.753v42.823c0,16.474-13.402,29.876-29.877,29.876z"/>
    <path d="m357.747,113.089h-92.747c-4.143,0-7.5,3.358-7.5,7.5s3.357,7.5 7.5,7.5h92.747c4.143,0 7.5-3.358 7.5-7.5s-3.357-7.5-7.5-7.5z"/>
  </g>
</svg>